<?xml version="1.0" encoding="utf-8"?>
<!-- Generator: Adobe Illustrator 17.1.0, SVG Export Plug-In . SVG Version: 6.00 Build 0)  -->
<!DOCTYPE svg PUBLIC "-//W3C//DTD SVG 1.1//EN" "http://www.w3.org/Graphics/SVG/1.1/DTD/svg11.dtd">
<svg version="1.1" xmlns="http://www.w3.org/2000/svg" xmlns:xlink="http://www.w3.org/1999/xlink" x="0px" y="0px"
	 viewBox="210 100 300 300" enable-background="new 0 0 841.9 595.3" xml:space="preserve">

<!-- viewBox="160 40 500 500" -->

<g id="stelsel_15">

  <path 
     d="
     m 350, 350 0, 0 
c -6, 0 -10, 0 -14, -1 -4, -1 -8, -4 -11, -8 -3, -4 -4, -8 -5, -13 -1, -5 -1, -14 -1, -26 0, -9 0, -15 -1, -20 -1, -5 -3, -10 -6, 
-13 -3, -3 -7, -5 -13, -5 
l 0, -16 
c 6, 0 10, -2 13, -5 3, -3 5, -8 6, -13 1, -5 1, -11 1, -20 0, -12 0, -21 1, -26 1, -5 2, -9 5, -13 3, -4 7, -7 11, -8 4, -1 8, -1 14, -1
l -5, 0 0, 15 3, 0 
c -7, 0 -11, 1 -13, 3 -3, 3 -4, 4 -4, 7
l 0, 25 
c 0, 15 -2, 25 -5, 31 -3, 6 -9, 10 -15, 13 6, 3 12, 7 15, 13 3, 6 5, 16 5, 31
l 0, 25 
c 0, 3 1, 4 4, 7 2, 2 6, 3 13, 3 
l -3, 0 0, 15 
     z"
     id="llv" />
     

	<rect x="371.3" y="190" fill="none" stroke="#231F20" stroke-width="12" stroke-miterlimit="10" width="40" height="50"/>
	<rect x="371.3" y="270" fill="none" stroke="#231F20" stroke-width="12" stroke-miterlimit="10" width="40" height="50"/>
</g>
</svg>
