<?xml version="1.0" encoding="utf-8"?>
<!-- Generator: Adobe Illustrator 17.1.0, SVG Export Plug-In . SVG Version: 6.00 Build 0)  -->
<!DOCTYPE svg PUBLIC "-//W3C//DTD SVG 1.1//EN" "http://www.w3.org/Graphics/SVG/1.1/DTD/svg11.dtd">
<svg version="1.1"
	 id="Laag_1" shape-rendering="geometricPrecision" image-rendering="optimizeQuality" text-rendering="geometricPrecision"
	 xmlns="http://www.w3.org/2000/svg" xmlns:xlink="http://www.w3.org/1999/xlink" x="0px" y="0px" viewBox="530.9 116.3 393 393" width="18px" height="18px" 
	 enable-background="new 530.9 116.3 393 393" xml:space="preserve">
<g>
	<circle fill="#FFFFFF" cx="724.8" cy="312.5" r="159"/>
	<path id="curve0_1_" fill="#6D4A8A" d="M724.8,132.5c100.4,0,181.8,81.4,181.8,181.8S825.1,496,724.8,496S543,414.7,543,314.3
		S624.4,132.5,724.8,132.5z M617.1,318.1c-5,5-5,13.3,0,18.3l72.5,72.5c5,5,13.3,5,18.3,0l137.5-137.5c5-5,5-13.3,0-18.3l-20.6-20.6
		c-5-5-13.3-5-18.3,0L698.8,340.2L656,297.5c-5-5-13.3-5-18.3,0L617.1,318.1z"/>
</g>
</svg>
