<?xml version="1.0" encoding="utf-8"?>
<!-- Generator: Adobe Illustrator 17.1.0, SVG Export Plug-In . SVG Version: 6.00 Build 0)  -->
<!DOCTYPE svg PUBLIC "-//W3C//DTD SVG 1.1//EN" "http://www.w3.org/Graphics/SVG/1.1/DTD/svg11.dtd">
<svg version="1.1" xmlns="http://www.w3.org/2000/svg" xmlns:xlink="http://www.w3.org/1999/xlink" x="0px" y="0px"
	 viewBox="0 0 1024 1024" enable-background="new 0 0 1024 1024" xml:space="preserve">
<g id="Laag_1" image-rendering="optimizeQuality" text-rendering="geometricPrecision" shape-rendering="geometricPrecision">
	<title>document_gear icon</title>
	<desc>document_gear icon from the IconExperience.com O-Collection. Copyright by INCORS GmbH (www.incors.com).</desc>
	<path id="curve1" fill="#314770" d="M128,64h523c35.2,0,65.6,12.6,90.5,37.5l117,117c24.9,24.9,37.5,55.3,37.5,90.5v651H128V64z
		 M704,160v96h96L704,160z M192,128v768h640V352c0-17.6-14.4-32-32-32H640V160c0-17.6-14.4-32-32-32H192z"/>
	<path id="curve0" display="none" fill="#314770" d="M628.1,419.8c6.3,4.8,12.3,9.9,18,15.3c2.4,2.3,5.6,3.1,8.8,2.2l50.2-13.6
		c7.8-2.2,15.7,0.8,20.2,7.5c7.3,11,13.4,21.7,19.2,33.6c3.5,7.2,2,15.5-3.8,21.2l-37.3,36.2c-2.4,2.3-3.3,5.5-2.6,8.7
		c1.8,7.7,3.1,15.5,4,23.4c0.3,3.3,2.2,5.9,5.2,7.3l47.3,21.8c7.3,3.4,11.5,10.8,10.6,18.8c-1.5,13.1-3.7,25.2-6.9,38
		c-2,7.8-8.5,13.2-16.5,13.8l-52,3.8c-3.3,0.2-6,2-7.5,5c-3.6,7-7.6,13.8-12,20.3c-1.8,2.8-2.1,6.1-0.7,9.1l22.2,47
		c3.4,7.3,1.9,15.6-4,21.2c-9.5,9.1-19.1,17-29.8,24.7c-6.6,4.7-15,4.7-21.5,0L597,754.6c-2.7-2-6-2.4-9-1.1
		c-7.2,3.1-14.6,5.7-22.1,7.9c-3.2,0.9-5.5,3.3-6.3,6.5l-13.3,50.3c-2.1,7.8-8.6,13.1-16.6,13.6c-13.2,0.9-25.7,0.8-38.9-0.2
		c-8-0.7-14.4-6.1-16.4-13.9l-12.7-50.5c-0.8-3.2-3.1-5.6-6.3-6.6c-7.4-2.2-14.6-4.9-21.7-8.1c-3-1.3-6.3-1-9,0.9l-42.5,30
		c-6.6,4.7-15.1,4.6-21.5-0.2c-10.7-7.9-20.2-15.9-29.7-25.2c-5.7-5.6-7.2-13.9-3.7-21.2l22.8-46.9c1.4-3,1.2-6.2-0.6-9
		c-4.2-6.5-8-13.1-11.4-20c-1.5-3-4.2-4.8-7.5-5.1l-52-4.3c-8-0.7-14.4-6.2-16.3-14c-3.1-13-5.2-25.2-6.5-38.5
		c-0.8-8,3.4-15.3,10.8-18.5l47.5-21.3c3.1-1.4,5-4,5.4-7.3c0.9-7.7,2.3-15.2,4.1-22.7c0.8-3.2-0.1-6.4-2.5-8.7l-37-36.7
		c-5.7-5.7-7.1-14-3.5-21.3c5.9-11.9,12.1-22.6,19.6-33.6c4.6-6.6,12.5-9.5,20.3-7.3l50.1,14.3c3.2,0.9,6.3,0.1,8.8-2.2
		c5.6-5.3,11.5-10.2,17.8-14.8c2.6-2,4-4.9,3.7-8.2l-4.8-52c-0.7-8,3.6-15.3,10.9-18.5c12.1-5.4,23.8-9.6,36.6-13.2
		c7.7-2.1,15.7,0.7,20.2,7.4l29.2,43.1c1.9,2.8,4.8,4.2,8.1,4c7.8-0.4,15.6-0.4,23.4,0.1c3.3,0.3,6.3-1.2,8.2-3.9l29.8-42.9
		c4.5-6.6,12.5-9.4,20.2-7.1c12.7,3.7,24.3,8,36.3,13.4c7.4,3.3,11.6,10.6,10.8,18.6l-5.3,51.8C624.1,414.8,625.4,417.8,628.1,419.8
		z M512,480c-53,0-96,43-96,96s43,96,96,96s96-43,96-96S565,480,512,480z"/>
</g>
<g id="Laag_2">
	<rect x="395.2" y="436.8" fill="#FFFFFF" width="235.8" height="268.2"/>
	<path fill="#1B75BB" d="M756,582.8c-14.4-6.7-28.7-13.5-43.2-19.9c-5.4-2.4-8-6-8.6-11.7c-0.7-6.1-1.5-12.2-3-18.1
		c-1.4-5.3-0.1-9.2,3.8-12.8c11.8-11.2,23.5-22.6,35-34c6.8-6.7,8.3-14.1,3.8-22.5c-5.6-10.6-11.6-21.1-17.9-31.3
		c-5.4-8.7-12.2-11-22.2-8.3c-15.1,4-30.3,8-45.3,12.3c-5.7,1.7-10.3,1.1-14.5-3.4c-3.4-3.6-7.1-7.1-11.3-9.6
		c-7.7-4.6-8.6-11.1-7.6-19.2c1.9-14.6,3.2-29.3,4.5-43.9c0.9-10-2.6-16-12.1-19.8c-10.4-4.2-21-8.2-31.7-11.8
		c-11.4-3.8-17.8-1.4-24.6,8.3c-9,12.9-18,25.7-26.8,38.7c-3,4.5-6.7,6.3-12.1,6c-5.7-0.4-11.5-0.6-17.2-0.1
		c-6.3,0.5-10.4-1.6-13.9-6.9c-8.7-13.3-17.7-26.4-26.7-39.4c-5.1-7.5-12.2-10.7-20.3-8.2c-12.5,4-24.9,8.5-37.1,13.4
		c-7.9,3.2-11.3,10.6-10.4,19.2c1.5,15.4,2.9,30.8,3.9,42.2c0.9,13.7,0.8,13.7-6.9,19.9c-4.2,3.3-8.4,6.7-12.2,10.4
		c-3.9,3.8-8,4.4-13.1,2.9c-14.6-4.3-29.4-8.4-44.1-12.6c-12.6-3.6-18.6-1.5-25.7,9.7c-5.8,9.2-11.2,18.7-16.3,28.3
		c-5.2,9.8-4,16.5,3.8,24.3c11.2,11.2,22.4,22.5,33.9,33.6c3.9,3.8,5,7.8,3.8,12.9c-1.3,5.6-2.8,11.2-3.2,16.9
		c-0.4,6.4-3.5,9.9-9.2,12.4c-14.6,6.2-29,12.8-43.4,19.4c-8.1,3.7-12.7,10.7-11.5,18.6c1.9,12.6,4,25.3,6.5,37.8
		c1.8,8.9,7.3,13.6,16.2,14.4c16.6,1.6,33.1,3.1,49.7,4.3c5,0.4,8.1,2.4,10.4,6.7c3,5.7,6.2,11.4,9.7,16.9c2.8,4.3,2.9,8.3,0.6,12.9
		c-7.2,14.4-14.1,28.8-21,43.3c-4.6,9.5-3.4,16.7,4.3,23.8c8.2,7.5,16.6,14.7,25.3,21.6c10.2,8.1,16.4,8,27,0.6
		c12.7-8.9,25.4-17.8,37.9-26.8c4.2-3,8.1-3.4,12.9-1.4c5.6,2.5,11.3,4.7,17.2,6.4c5.6,1.6,8.5,5,9.8,10.6
		c3.6,15.4,7.6,30.8,11.5,46.1c2.5,9.8,8.7,15,18.9,15.2c11.7,0.2,23.3,0.3,35,0.1c10.1-0.2,15.7-4.9,18.4-14.8
		c4.2-15.5,8.4-30.9,12.3-46.5c1.3-5.3,4.2-8.2,9.3-9.7c5.8-1.7,11.7-3.6,17.3-6.1c5.4-2.4,9.7-1.6,14.3,1.9
		c12.6,9.4,25.3,18.5,38.1,27.6c8.5,6.1,16,6.3,24.2-0.1c8.9-6.9,17.7-14.1,26.1-21.5c8.9-7.8,10-14.8,4.9-25.6
		c-6.6-14-13.1-28-19.8-42c-2.3-4.7-2.3-8.9,0.8-13.4c3.6-5.4,6.9-11.1,9.9-16.8c2.3-4.3,5.3-6.5,10.3-6.8
		c15.3-0.9,30.5-2.2,45.8-3.2c13.3-0.9,18.7-5,21.5-17.9c2.3-10.8,4.2-21.7,5.8-32.7C768.9,593.1,765.4,587.2,756,582.8z
		 M613.7,688.8h-66.3V564.7c0-21.3-2.8-36.5-8.5-45.4c-5.6-8.9-16.2-13.3-31.6-13.3c-4.7,0-9.8,0.2-15.1,0.7
		c-5.3,0.4-10.1,1-14.2,1.6v180.6h-66.3V462.8c11.3-3.3,25.8-6.3,43.6-9.1c17.8-2.8,36.5-4.2,56-4.2c19.9,0,36.4,2.6,49.6,7.8
		c13.2,5.2,23.6,12.5,31.4,22c7.7,9.5,13.2,20.8,16.5,33.8c3.3,13,4.9,27.6,4.9,43.6V688.8z"/>
</g>
</svg>
